# xmcd CD database file
#
# Track frame offsets:
#	150
#	7680
#	21187
#	33327
#	48622
#	58367
#	70412
#	84665
#	98387
#	108992
#	124602
#	134747
#	147932
#	166485
#	178882
#	189667
#	202795
#	214175
#	230440
#	239290
#	251085
#	260405
#	271472
#
# Disc length: 3846 seconds
#
# Revision: 7
# Processed by: cddbd v1.5.2PL0 Copyright (c) Steve Scherf et al.
# Submitted via: CDex 1.81
#
DISCID=4f0f0417
DTITLE=Elvis Costello and The Attractions - Almost Blue [New Edition]
DYEAR=1994
DGENRE=Country
TTITLE0=Why Don't You Love Me (Like You Used To Do)?
TTITLE1=Sweet Dreams
TTITLE2=Success
TTITLE3=I'm Your Toy
TTITLE4=Tonight The Bottle Let Me Down
TTITLE5=Brown To Blue
TTITLE6=Good Year For The Roses
TTITLE7=Sittin' And Thinkin'
TTITLE8=Colour Of The Blues
TTITLE9=Too Far Gone
TTITLE10=Honey Hush
TTITLE11=How Much I Lied
TTITLE12=He's Got You [Live in Aberdeen]
TTITLE13=Cry, Cry, Cry [Live in Aberdeen]
TTITLE14=There Won't Be Anymore [Live in Aberdeen]
TTITLE15=Sittin' and Thinkin' [Live in Aberdeen]
TTITLE16=Honey Hush [Live in Aberdeen]
TTITLE17=Psycho [Live in Aberdeen]
TTITLE18=Your Angel Steps Out Of Heaven [Live in Aberdeen]
TTITLE19=Darling, You Know I Wouldn't Lie [Live in Aberdeen]
TTITLE20=My Shoes Keep Walking Back To You [Live in Aberdeen]
TTITLE21=Tears Before Bedtime [Live in Aberdeen]
TTITLE22=I'm Your Toy [Live in Aberdeen]
EXTD=YEAR: 1994
EXTT0=
EXTT1=
EXTT2=
EXTT3=
EXTT4=
EXTT5=
EXTT6=
EXTT7=
EXTT8=
EXTT9=
EXTT10=
EXTT11=
EXTT12=
EXTT13=
EXTT14=
EXTT15=
EXTT16=
EXTT17=
EXTT18=
EXTT19=
EXTT20=
EXTT21=
EXTT22=
PLAYORDER=
